<?xml version="1.0" encoding="UTF-8" standalone="no"?>
<!DOCTYPE svg PUBLIC "-//W3C//DTD SVG 1.1//EN" "http://www.w3.org/Graphics/SVG/1.1/DTD/svg11.dtd">
<svg width="100%" height="100%" viewBox="0 0 416 309" version="1.1" xmlns="http://www.w3.org/2000/svg" xmlns:xlink="http://www.w3.org/1999/xlink" xml:space="preserve" xmlns:serif="http://www.serif.com/" style="fill-rule:evenodd;clip-rule:evenodd;stroke-linecap:round;stroke-linejoin:round;stroke-miterlimit:1.41421;">
    <g transform="matrix(1,0,0,1,-1788,-1832)">
        <g id="text5083">
        </g>
        <g id="g4235">
        </g>
        <g id="g4741">
        </g>
        <g transform="matrix(1,0,0,1,190,-238)">
            <g transform="matrix(4.16667,0,0,4.16667,1668.72,2063.6)">
                <path d="M71.76,56.7C68.917,56.615 65.944,53.675 63.078,54.608C60.665,55.393 59.083,56.82 56.669,56.7C54.26,56.58 52.033,53.947 49.637,53.711C35.882,52.355 22.289,52.231 10.558,56.7L3.24,53.433L3.24,69.343L71.76,69.343L71.76,56.7Z" style="fill:rgb(151,207,233);"/>
            </g>
            <g transform="matrix(4.16667,0,0,4.16667,1668.72,2063.6)">
                <path d="M58.728,47.348L55.054,56.533C52.591,55.902 52.129,53.666 48.875,53.666C45.083,53.666 45.083,56.7 41.29,56.7C37.497,56.7 37.499,53.666 33.706,53.666C29.913,53.666 29.913,56.7 26.122,56.7C22.33,56.7 22.33,53.666 18.538,53.666C16.117,53.666 15.241,54.904 13.937,55.797L10.558,47.348L58.728,47.348Z" style="fill:rgb(102,188,139);fill-rule:nonzero;stroke:rgb(242,151,22);stroke-width:1.42px;"/>
            </g>
            <g transform="matrix(4.16667,0,0,4.16667,1668.72,2063.6)">
                <path d="M25.787,43.871C24.922,43.871 24.211,43.114 24.211,42.194L24.211,16.1C24.211,15.18 24.922,14.423 25.787,14.423C26.652,14.423 27.363,15.18 27.363,16.1L27.363,42.194C27.363,43.114 26.652,43.871 25.787,43.871Z" style="fill:rgb(102,188,139);fill-rule:nonzero;stroke:rgb(242,151,22);stroke-width:1.42px;stroke-linecap:butt;"/>
            </g>
            <g transform="matrix(4.16667,0,0,4.16667,1668.72,2063.6)">
                <path d="M71.63,55.846C70.033,55.846 69.263,55.23 68.37,54.517C67.372,53.718 66.241,52.813 64.045,52.813C61.849,52.813 60.717,53.718 59.719,54.517C58.827,55.23 58.057,55.846 56.459,55.846C56.063,55.85 55.668,55.805 55.283,55.712C55.277,55.71 55.272,55.708 55.266,55.707C54.415,55.489 53.852,55.038 53.199,54.516C52.201,53.718 51.069,52.813 48.876,52.813C46.682,52.813 45.548,53.718 44.55,54.517C43.658,55.23 42.888,55.846 41.29,55.846C39.693,55.846 38.924,55.23 38.032,54.517C37.034,53.718 35.902,52.813 33.706,52.813C31.511,52.813 30.379,53.718 29.381,54.517C28.489,55.23 27.719,55.846 26.122,55.846C24.526,55.846 23.756,55.23 22.864,54.517C21.866,53.718 20.734,52.813 18.538,52.813C16.345,52.813 15.213,53.717 14.215,54.515C13.957,54.721 13.713,54.916 13.455,55.093C12.885,55.484 12.187,55.847 10.954,55.847C9.358,55.847 8.588,55.231 7.696,54.517C6.697,53.719 5.565,52.813 3.37,52.813C2.902,52.813 2.516,53.198 2.516,53.666C2.516,54.134 2.902,54.52 3.37,54.52C4.967,54.52 5.737,55.136 6.63,55.85C7.628,56.648 8.759,57.553 10.954,57.553C12.666,57.553 13.705,56.99 14.419,56.501C14.729,56.289 15.009,56.065 15.28,55.848C16.172,55.135 16.942,54.52 18.538,54.52C20.133,54.52 20.906,55.136 21.798,55.85C22.796,56.648 23.927,57.553 26.122,57.553C28.317,57.553 29.448,56.648 30.446,55.85C31.338,55.136 32.109,54.52 33.706,54.52C35.303,54.52 36.074,55.136 36.966,55.85C37.964,56.648 39.095,57.553 41.29,57.553C43.485,57.553 44.618,56.648 45.615,55.849C46.508,55.136 47.278,54.52 48.875,54.52C50.472,54.52 51.241,55.136 52.133,55.849C52.829,56.405 53.616,57.034 54.797,57.347C54.812,57.352 54.828,57.357 54.843,57.361C55.372,57.493 55.915,57.557 56.459,57.553C58.655,57.553 59.787,56.648 60.785,55.849C61.677,55.136 62.448,54.519 64.045,54.519C65.642,54.519 66.413,55.136 67.305,55.849C68.303,56.648 69.435,57.553 71.63,57.553C72.098,57.553 72.484,57.168 72.484,56.7C72.484,56.232 72.098,55.846 71.63,55.846Z" style="fill:rgb(242,151,22);fill-rule:nonzero;"/>
            </g>
            <g transform="matrix(4.16667,0,0,4.16667,1668.72,2063.6)">
                <path d="M45.536,19.262L23.75,27.528L23.75,5.657L45.536,19.262Z" style="fill:rgb(151,207,233);fill-rule:nonzero;stroke:rgb(242,151,22);stroke-width:1.42px;stroke-linecap:butt;"/>
            </g>
            <g transform="matrix(4.16667,0,0,4.16667,1668.72,2063.6)">
                <path d="M60.434,43.082L58.728,47.348L10.558,47.348L8.852,43.082L60.434,43.082Z" style="fill:rgb(251,223,94);fill-rule:nonzero;stroke:rgb(242,151,22);stroke-width:1.42px;"/>
            </g>
        </g>
    </g>
</svg>
