<?xml version="1.0" encoding="UTF-8" standalone="no"?>
<!DOCTYPE svg PUBLIC "-//W3C//DTD SVG 1.1//EN" "http://www.w3.org/Graphics/SVG/1.1/DTD/svg11.dtd">
<svg width="100%" height="100%" viewBox="0 0 553 275" version="1.1" xmlns="http://www.w3.org/2000/svg" xmlns:xlink="http://www.w3.org/1999/xlink" xml:space="preserve" xmlns:serif="http://www.serif.com/" style="fill-rule:evenodd;clip-rule:evenodd;stroke-linecap:round;stroke-linejoin:round;stroke-miterlimit:1.5;">
    <g transform="matrix(1,0,0,1,-728,-1261)">
        <g transform="matrix(0.0621824,-0.239553,0.225575,0.145901,467.539,1439.56)">
            <path d="M1286,2083L656,1003L655,1717L1286,2083" style="fill:rgb(242,151,22);"/>
        </g>
        <g transform="matrix(0.00376324,-0.135098,-0.209817,0.00765906,1419.14,1678.86)">
            <path d="M1286,2058L1918,1702L1916,1015L1286,2058Z" style="fill:rgb(151,207,233);"/>
        </g>
        <g transform="matrix(0.0702387,-0.270077,0.231363,0.153649,560.152,1461.74)">
            <path d="M1286,985L1286,1699L655,622L1286,985Z" style="fill:rgb(251,223,94);"/>
        </g>
        <g transform="matrix(0.000677498,-0.131388,0.269015,0.00403514,827.091,1565.83)">
            <path d="M1918,643L1286,997L1286,1684L1918,643" style="fill:rgb(102,188,139);"/>
        </g>
        <g id="text5083">
        </g>
        <g id="g4235">
        </g>
        <g id="g4741">
        </g>
        <g transform="matrix(3.88002,0,0,3.23123,391.07,392.316)">
            <path d="M187.121,321.158C187.121,321.158 184.1,321.699 182.196,323.855L128.74,324.803L106.299,301.181L161.155,302.183C163.431,304.684 165.443,304.596 167.227,302.294L185.762,302.632C185.762,302.632 182.925,306.546 183.699,311.258C184.007,313.137 186.047,314.912 187.154,316.999L187.121,321.158ZM174.609,321.145C173.945,321.145 173.362,321.028 172.86,320.793C172.358,320.558 171.945,320.239 171.621,319.834C171.297,319.429 171.054,318.951 170.892,318.401C170.73,317.85 170.649,317.259 170.649,316.627C170.649,315.769 170.795,315.012 171.087,314.356C171.378,313.7 171.759,313.154 172.228,312.716C172.698,312.279 173.228,311.947 173.819,311.721C174.411,311.494 175.014,311.38 175.629,311.38C175.953,311.38 176.249,311.413 176.516,311.478C176.783,311.542 177.03,311.615 177.257,311.696C177.5,311.777 177.734,311.874 177.961,311.988L179.321,311.283L179.54,311.356C179.54,312.619 179.544,313.878 179.552,315.133C179.56,316.388 179.564,317.648 179.564,318.911C179.564,319.558 179.84,319.866 180.39,319.834C180.52,319.834 180.625,319.813 180.706,319.773C180.787,319.733 180.868,319.688 180.949,319.639C181.014,319.575 181.087,319.518 181.167,319.469L181.41,319.615C181.297,319.907 181.151,320.166 180.973,320.392C180.811,320.587 180.609,320.761 180.366,320.915C180.123,321.069 179.84,321.145 179.516,321.145C178.965,321.145 178.576,320.971 178.35,320.623C178.123,320.275 178.01,319.793 178.01,319.178L178.01,318.449C177.912,318.789 177.771,319.121 177.585,319.445C177.398,319.769 177.168,320.056 176.892,320.307C176.617,320.558 176.293,320.761 175.921,320.915C175.548,321.069 175.111,321.145 174.609,321.145ZM154.787,320.538L156.075,320.392C156.544,320.344 156.856,320.251 157.01,320.113C157.164,319.975 157.241,319.648 157.241,319.129L157.241,307.834C157.241,307.591 157.229,307.381 157.204,307.202C157.18,307.024 157.127,306.878 157.046,306.765C156.966,306.652 156.832,306.555 156.646,306.474C156.459,306.393 156.212,306.328 155.905,306.279L154.885,306.109L154.86,305.696C155.249,305.696 155.561,305.7 155.795,305.708C156.03,305.717 156.237,305.704 156.415,305.672L159.67,305.502C160.059,305.453 160.463,305.429 160.884,305.429C162.747,305.429 164.152,305.704 165.099,306.255C166.046,306.806 166.52,307.769 166.52,309.146C166.52,310.101 166.277,310.854 165.791,311.405C165.305,311.955 164.569,312.465 163.581,312.935L166.253,317.623C166.625,318.271 166.949,318.773 167.224,319.129C167.5,319.486 167.771,319.753 168.038,319.931C168.305,320.109 168.589,320.226 168.888,320.283C169.188,320.34 169.556,320.401 169.994,320.465L169.994,320.903C169.654,320.886 169.281,320.878 168.876,320.878L166.374,320.878C166.018,320.878 165.751,320.886 165.573,320.903L161.88,314.052C161.621,313.55 161.216,313.299 160.666,313.299L159.378,313.299L159.378,318.984C159.378,319.372 159.455,319.656 159.609,319.834C159.763,320.012 160.034,320.15 160.423,320.247L161.613,320.538L161.613,320.975C160.447,320.911 159.261,320.878 158.055,320.878C156.848,320.878 155.759,320.911 154.787,320.975L154.787,320.538ZM178.01,315.777C178.01,315.227 177.965,314.725 177.876,314.271C177.787,313.818 177.637,313.433 177.427,313.117C177.216,312.801 176.945,312.559 176.613,312.389C176.281,312.218 175.864,312.133 175.362,312.133C175.022,312.133 174.662,312.202 174.281,312.34C173.9,312.478 173.556,312.704 173.249,313.02C172.941,313.336 172.686,313.741 172.483,314.235C172.281,314.729 172.18,315.324 172.18,316.02C172.18,316.554 172.249,317.069 172.386,317.563C172.524,318.056 172.722,318.49 172.981,318.862C173.241,319.235 173.556,319.53 173.929,319.749C174.301,319.967 174.73,320.077 175.216,320.077C175.605,320.077 175.965,319.979 176.297,319.785C176.629,319.591 176.917,319.32 177.159,318.971C177.402,318.623 177.601,318.214 177.755,317.745C177.908,317.275 177.993,316.765 178.01,316.214L178.01,315.777ZM159.378,312.619C162.617,312.733 164.237,311.704 164.237,309.534C164.237,308.514 163.884,307.7 163.18,307.093C162.476,306.486 161.492,306.182 160.229,306.182C160.099,306.182 159.961,306.186 159.816,306.194C159.67,306.202 159.524,306.215 159.378,306.231L159.378,312.619Z" style="fill:rgb(125,125,125);stroke:rgb(122,104,93);stroke-width:0.44px;"/>
        </g>
    </g>
</svg>
