<?xml version="1.0" encoding="UTF-8" standalone="no"?>
<!DOCTYPE svg PUBLIC "-//W3C//DTD SVG 1.1//EN" "http://www.w3.org/Graphics/SVG/1.1/DTD/svg11.dtd">
<svg width="100%" height="100%" viewBox="0 0 1218 461" version="1.1" xmlns="http://www.w3.org/2000/svg" xmlns:xlink="http://www.w3.org/1999/xlink" xml:space="preserve" xmlns:serif="http://www.serif.com/" style="fill-rule:evenodd;clip-rule:evenodd;stroke-linejoin:round;stroke-miterlimit:2;">
    <g transform="matrix(1,0,0,1,-278,-2301)">
        <g transform="matrix(0.290212,0,0,0.290212,133.911,2146.43)">
            <path d="M1286,2058L1918,1702L1916,1015L1286,2058Z" style="fill:rgb(151,207,233);"/>
        </g>
        <g transform="matrix(0.290212,0,0,0.290212,133.911,2146.43)">
            <path d="M1286,2083L656,1003L655,1717L1286,2083" style="fill:rgb(242,151,22);"/>
        </g>
        <g transform="matrix(0.290212,0,0,0.290212,133.911,2146.43)">
            <path d="M1286,985L1286,1699L655,622L1286,985Z" style="fill:rgb(251,223,94);"/>
        </g>
        <g transform="matrix(0.290212,0,0,0.290212,133.911,2146.43)">
            <path d="M1918,643L1286,997L1286,1684L1918,643" style="fill:rgb(102,188,139);"/>
        </g>
        <g transform="matrix(0.394807,0,0,0.723585,601.442,1978.71)">
            <path d="M367.731,855.451L285.21,713.138L352.259,713.138L401.132,806.405L446.077,713.138L512.634,713.138L556.105,806.405L605.961,713.138L673.991,713.138L590.243,855.451L523.931,855.451L478.987,763.926L434.779,855.451L367.731,855.451Z" style="fill-rule:nonzero;"/>
            <path d="M703.954,864.831L782.791,870.057C784.101,875.06 787.13,878.5 791.878,880.376C798.428,883.056 808.743,884.396 822.824,884.396C840.834,884.396 854.342,882.922 863.347,879.974C869.405,878.008 873.99,874.837 877.101,870.459C879.229,867.333 880.293,861.57 880.293,853.173L880.293,832.402C859.663,847.768 833.63,855.451 802.193,855.451C767.155,855.451 739.402,847.366 718.936,831.196C702.89,818.421 694.867,802.519 694.867,783.49C694.867,759.638 705.387,741.413 726.426,728.816C747.466,716.22 773.622,709.922 804.895,709.922C837.15,709.922 863.756,717.649 884.714,733.105L884.714,713.138L949.306,713.138L949.306,840.844C949.306,857.64 946.768,870.191 941.693,878.5C936.617,886.808 929.495,893.33 920.326,898.064C911.157,902.799 898.918,906.507 883.609,909.187C868.3,911.867 848.939,913.207 825.525,913.207C781.318,913.207 749.963,909.075 731.461,900.812C712.96,892.548 703.709,882.073 703.709,869.387C703.709,868.137 703.791,866.618 703.954,864.831ZM765.599,781.346C765.599,796.444 770.962,807.5 781.686,814.512C792.41,821.525 805.632,825.032 821.35,825.032C838.214,825.032 852.459,821.436 864.084,814.244C875.709,807.053 881.521,796.4 881.521,782.284C881.521,767.544 875.954,756.6 864.821,749.453C853.687,742.306 839.606,738.733 822.578,738.733C806.041,738.733 792.41,742.239 781.686,749.252C770.962,756.265 765.599,766.963 765.599,781.346Z" style="fill-rule:nonzero;"/>
            <path d="M1012.43,713.138L1076.04,713.138L1076.04,732.569C1098.79,717.471 1125.89,709.922 1157.33,709.922C1174.03,709.922 1188.52,711.798 1200.8,715.55C1213.08,719.302 1223.15,724.975 1231.01,732.569C1242.47,724.975 1254.83,719.302 1268.09,715.55C1281.35,711.798 1295.52,709.922 1310.58,709.922C1329.74,709.922 1345.95,712.044 1359.21,716.287C1372.47,720.531 1382.38,726.762 1388.93,734.981C1393.67,741.056 1396.05,750.883 1396.05,764.462L1396.05,855.451L1327.04,855.451L1327.04,774.11C1327.04,759.995 1324.66,750.883 1319.91,746.773C1313.53,741.413 1303.7,738.733 1290.44,738.733C1280.78,738.733 1271.69,740.341 1263.18,743.557C1254.67,746.773 1248.53,751.486 1244.76,757.694C1240.99,763.903 1239.11,773.708 1239.11,787.109L1239.11,855.451L1170.1,855.451L1170.1,777.46C1170.1,763.613 1168.87,754.679 1166.41,750.659C1163.96,746.639 1160.15,743.646 1154.99,741.681C1149.84,739.716 1142.84,738.733 1134,738.733C1123.35,738.733 1113.78,740.296 1105.26,743.423C1096.75,746.55 1090.65,751.061 1086.96,756.957C1083.28,762.854 1081.44,772.636 1081.44,786.304L1081.44,855.451L1012.43,855.451L1012.43,713.138Z" style="fill-rule:nonzero;"/>
            <path d="M1516.39,756.555L1453.76,750.391C1460.8,736.633 1472.92,726.449 1490.11,719.838C1507.3,713.227 1532.85,709.922 1566.74,709.922C1597.52,709.922 1620.44,711.91 1635.51,715.885C1650.57,719.86 1661.17,724.908 1667.31,731.028C1673.45,737.147 1676.52,748.381 1676.52,764.73L1675.78,808.683C1675.78,821.19 1676.89,830.414 1679.1,836.355C1681.31,842.296 1685.44,848.661 1691.5,855.451L1623.23,855.451C1621.42,852.95 1619.22,849.242 1616.6,844.329C1615.45,842.095 1614.63,840.621 1614.14,839.906C1602.35,846.16 1589.74,850.85 1576.32,853.977C1562.89,857.104 1548.56,858.667 1533.34,858.667C1506.49,858.667 1485.32,854.692 1469.85,846.741C1454.38,838.79 1446.64,828.739 1446.64,816.59C1446.64,808.549 1450.16,801.38 1457.2,795.082C1464.24,788.784 1474.11,783.959 1486.8,780.609C1499.49,777.259 1517.78,774.333 1541.69,771.832C1573.94,768.527 1596.29,765.444 1608.74,762.586L1608.74,758.834C1608.74,751.597 1605.46,746.438 1598.91,743.356C1592.36,740.274 1580,738.733 1561.83,738.733C1549.55,738.733 1539.97,740.051 1533.09,742.686C1526.21,745.321 1520.65,749.945 1516.39,756.555ZM1608.74,787.109C1599.89,788.717 1585.89,790.637 1566.74,792.871C1547.58,795.104 1535.06,797.293 1529.16,799.437C1520.16,802.921 1515.65,807.343 1515.65,812.703C1515.65,817.974 1519.26,822.53 1526.46,826.372C1533.66,830.213 1542.83,832.134 1553.97,832.134C1566.41,832.134 1578.28,829.901 1589.58,825.434C1597.93,822.039 1603.41,817.885 1606.03,812.971C1607.84,809.755 1608.74,803.636 1608.74,794.613L1608.74,787.109Z" style="fill-rule:nonzero;"/>
            <path d="M1864.16,713.138L1864.16,743.155L1817,743.155L1817,800.509C1817,812.123 1817.45,818.89 1818.35,820.811C1819.25,822.731 1821.3,824.317 1824.49,825.568C1827.69,826.819 1831.58,827.444 1836.16,827.444C1842.55,827.444 1851.8,826.238 1863.91,823.826L1869.81,853.039C1853.76,856.791 1835.59,858.667 1815.28,858.667C1802.84,858.667 1791.62,857.528 1781.64,855.25C1771.65,852.972 1764.32,850.024 1759.66,846.406C1754.99,842.787 1751.76,837.896 1749.95,831.732C1748.48,827.355 1747.74,818.51 1747.74,805.199L1747.74,743.155L1716.06,743.155L1716.06,713.138L1747.74,713.138L1747.74,684.863L1817,662.886L1817,713.138L1864.16,713.138Z" style="fill-rule:nonzero;"/>
            <path d="M1980.82,659L1980.82,731.229C2003.08,717.024 2029.69,709.922 2060.64,709.922C2076.52,709.922 2090.84,711.53 2103.62,714.746C2116.39,717.962 2126.01,722.072 2132.47,727.074C2138.94,732.077 2143.36,737.616 2145.74,743.691C2148.11,749.766 2149.3,759.191 2149.3,771.966L2149.3,855.451L2080.28,855.451L2080.28,780.274C2080.28,765.355 2078.97,755.885 2076.35,751.865C2073.73,747.845 2069.11,744.651 2062.48,742.284C2055.85,739.917 2047.54,738.733 2037.55,738.733C2026.09,738.733 2015.86,740.252 2006.85,743.289C1997.84,746.326 1991.25,750.905 1987.08,757.024C1982.9,763.144 1980.82,772.189 1980.82,784.16L1980.82,855.451L1911.8,855.451L1911.8,659L1980.82,659Z" style="fill-rule:nonzero;"/>
        </g>
    </g>
</svg>
